<mxfile host="app.diagrams.net" modified="2023-10-28T15:47:03.000Z" agent="Mozilla/5.0 (Windows NT 10.0; Win64; x64) AppleWebKit/537.36 (KHTML, like Gecko) Chrome/118.0.0.0 Safari/537.36" etag="9J3U9MdbbJ_QARn3inP8" version="21.7.5" type="device">
  <diagram name="Seite-1" id="MQ4kX_gkN1eKJVH4a0W8">
    <mxGraphModel dx="1290" dy="542" grid="1" gridSize="10" guides="1" tooltips="1" connect="1" arrows="1" fold="1" page="1" pageScale="1" pageWidth="827" pageHeight="1169" math="0" shadow="0">
      <root>
        <mxCell id="0" />
        <mxCell id="1" parent="0" />
        <mxCell id="GBQWndS0z4S2nc0Ehahh-1" value="1" style="ellipse;whiteSpace=wrap;html=1;aspect=fixed;" vertex="1" parent="1">
          <mxGeometry x="150" y="130" width="40" height="40" as="geometry" />
        </mxCell>
        <mxCell id="GBQWndS0z4S2nc0Ehahh-2" value="2" style="ellipse;whiteSpace=wrap;html=1;aspect=fixed;" vertex="1" parent="1">
          <mxGeometry x="300" y="140" width="40" height="40" as="geometry" />
        </mxCell>
        <mxCell id="GBQWndS0z4S2nc0Ehahh-3" value="3" style="ellipse;whiteSpace=wrap;html=1;aspect=fixed;" vertex="1" parent="1">
          <mxGeometry x="90" y="300" width="40" height="40" as="geometry" />
        </mxCell>
        <mxCell id="GBQWndS0z4S2nc0Ehahh-4" value="4" style="ellipse;whiteSpace=wrap;html=1;aspect=fixed;" vertex="1" parent="1">
          <mxGeometry x="240" y="110" width="40" height="40" as="geometry" />
        </mxCell>
        <mxCell id="GBQWndS0z4S2nc0Ehahh-5" value="5" style="ellipse;whiteSpace=wrap;html=1;aspect=fixed;" vertex="1" parent="1">
          <mxGeometry x="410" y="300" width="40" height="40" as="geometry" />
        </mxCell>
        <mxCell id="GBQWndS0z4S2nc0Ehahh-6" value="6" style="ellipse;whiteSpace=wrap;html=1;aspect=fixed;" vertex="1" parent="1">
          <mxGeometry x="270" y="220" width="40" height="40" as="geometry" />
        </mxCell>
        <mxCell id="GBQWndS0z4S2nc0Ehahh-7" value="7" style="ellipse;whiteSpace=wrap;html=1;aspect=fixed;" vertex="1" parent="1">
          <mxGeometry x="374" y="180" width="40" height="40" as="geometry" />
        </mxCell>
        <mxCell id="GBQWndS0z4S2nc0Ehahh-8" value="8" style="ellipse;whiteSpace=wrap;html=1;aspect=fixed;" vertex="1" parent="1">
          <mxGeometry x="240" y="370" width="40" height="40" as="geometry" />
        </mxCell>
        <mxCell id="GBQWndS0z4S2nc0Ehahh-9" value="9" style="ellipse;whiteSpace=wrap;html=1;aspect=fixed;" vertex="1" parent="1">
          <mxGeometry x="440" y="120" width="40" height="40" as="geometry" />
        </mxCell>
        <mxCell id="GBQWndS0z4S2nc0Ehahh-10" value="" style="endArrow=none;html=1;rounded=0;exitX=0;exitY=1;exitDx=0;exitDy=0;entryX=0.5;entryY=0;entryDx=0;entryDy=0;" edge="1" parent="1" source="GBQWndS0z4S2nc0Ehahh-1" target="GBQWndS0z4S2nc0Ehahh-3">
          <mxGeometry width="50" height="50" relative="1" as="geometry">
            <mxPoint x="390" y="310" as="sourcePoint" />
            <mxPoint x="440" y="260" as="targetPoint" />
          </mxGeometry>
        </mxCell>
        <mxCell id="GBQWndS0z4S2nc0Ehahh-12" value="" style="endArrow=none;html=1;rounded=0;exitX=1;exitY=0.5;exitDx=0;exitDy=0;entryX=0;entryY=0;entryDx=0;entryDy=0;" edge="1" parent="1" source="GBQWndS0z4S2nc0Ehahh-1" target="GBQWndS0z4S2nc0Ehahh-4">
          <mxGeometry width="50" height="50" relative="1" as="geometry">
            <mxPoint x="166" y="174" as="sourcePoint" />
            <mxPoint x="120" y="310" as="targetPoint" />
          </mxGeometry>
        </mxCell>
        <mxCell id="GBQWndS0z4S2nc0Ehahh-15" value="" style="endArrow=none;html=1;rounded=0;exitX=1;exitY=1;exitDx=0;exitDy=0;entryX=0;entryY=0;entryDx=0;entryDy=0;" edge="1" parent="1" source="GBQWndS0z4S2nc0Ehahh-1" target="GBQWndS0z4S2nc0Ehahh-6">
          <mxGeometry width="50" height="50" relative="1" as="geometry">
            <mxPoint x="176" y="184" as="sourcePoint" />
            <mxPoint x="130" y="320" as="targetPoint" />
          </mxGeometry>
        </mxCell>
        <mxCell id="GBQWndS0z4S2nc0Ehahh-16" value="" style="endArrow=none;html=1;rounded=0;exitX=0.5;exitY=1;exitDx=0;exitDy=0;entryX=0.5;entryY=0;entryDx=0;entryDy=0;" edge="1" parent="1" source="GBQWndS0z4S2nc0Ehahh-1" target="GBQWndS0z4S2nc0Ehahh-8">
          <mxGeometry width="50" height="50" relative="1" as="geometry">
            <mxPoint x="186" y="194" as="sourcePoint" />
            <mxPoint x="140" y="330" as="targetPoint" />
          </mxGeometry>
        </mxCell>
        <mxCell id="GBQWndS0z4S2nc0Ehahh-17" value="" style="endArrow=none;html=1;rounded=0;exitX=0.5;exitY=1;exitDx=0;exitDy=0;entryX=0;entryY=0.5;entryDx=0;entryDy=0;" edge="1" parent="1" source="GBQWndS0z4S2nc0Ehahh-2" target="GBQWndS0z4S2nc0Ehahh-7">
          <mxGeometry width="50" height="50" relative="1" as="geometry">
            <mxPoint x="196" y="204" as="sourcePoint" />
            <mxPoint x="150" y="340" as="targetPoint" />
          </mxGeometry>
        </mxCell>
        <mxCell id="GBQWndS0z4S2nc0Ehahh-18" value="" style="endArrow=none;html=1;rounded=0;exitX=1;exitY=0.5;exitDx=0;exitDy=0;entryX=0;entryY=0.5;entryDx=0;entryDy=0;" edge="1" parent="1" source="GBQWndS0z4S2nc0Ehahh-2" target="GBQWndS0z4S2nc0Ehahh-9">
          <mxGeometry width="50" height="50" relative="1" as="geometry">
            <mxPoint x="206" y="214" as="sourcePoint" />
            <mxPoint x="160" y="350" as="targetPoint" />
          </mxGeometry>
        </mxCell>
        <mxCell id="GBQWndS0z4S2nc0Ehahh-19" value="" style="endArrow=none;html=1;rounded=0;exitX=0;exitY=1;exitDx=0;exitDy=0;entryX=1;entryY=0;entryDx=0;entryDy=0;" edge="1" parent="1" source="GBQWndS0z4S2nc0Ehahh-4" target="GBQWndS0z4S2nc0Ehahh-3">
          <mxGeometry width="50" height="50" relative="1" as="geometry">
            <mxPoint x="216" y="224" as="sourcePoint" />
            <mxPoint x="170" y="360" as="targetPoint" />
          </mxGeometry>
        </mxCell>
        <mxCell id="GBQWndS0z4S2nc0Ehahh-20" value="" style="endArrow=none;html=1;rounded=0;exitX=0;exitY=1;exitDx=0;exitDy=0;entryX=1;entryY=0.5;entryDx=0;entryDy=0;" edge="1" parent="1" source="GBQWndS0z4S2nc0Ehahh-6" target="GBQWndS0z4S2nc0Ehahh-3">
          <mxGeometry width="50" height="50" relative="1" as="geometry">
            <mxPoint x="226" y="234" as="sourcePoint" />
            <mxPoint x="180" y="370" as="targetPoint" />
          </mxGeometry>
        </mxCell>
        <mxCell id="GBQWndS0z4S2nc0Ehahh-21" value="" style="endArrow=none;html=1;rounded=0;exitX=1;exitY=1;exitDx=0;exitDy=0;entryX=0;entryY=0.5;entryDx=0;entryDy=0;" edge="1" parent="1" source="GBQWndS0z4S2nc0Ehahh-6" target="GBQWndS0z4S2nc0Ehahh-5">
          <mxGeometry width="50" height="50" relative="1" as="geometry">
            <mxPoint x="236" y="244" as="sourcePoint" />
            <mxPoint x="190" y="380" as="targetPoint" />
          </mxGeometry>
        </mxCell>
        <mxCell id="GBQWndS0z4S2nc0Ehahh-23" value="" style="endArrow=none;html=1;rounded=0;exitX=0.5;exitY=1;exitDx=0;exitDy=0;entryX=0.5;entryY=0;entryDx=0;entryDy=0;" edge="1" parent="1" source="GBQWndS0z4S2nc0Ehahh-9" target="GBQWndS0z4S2nc0Ehahh-5">
          <mxGeometry width="50" height="50" relative="1" as="geometry">
            <mxPoint x="246" y="254" as="sourcePoint" />
            <mxPoint x="200" y="390" as="targetPoint" />
          </mxGeometry>
        </mxCell>
        <mxCell id="GBQWndS0z4S2nc0Ehahh-24" value="" style="endArrow=none;html=1;rounded=0;exitX=0.5;exitY=1;exitDx=0;exitDy=0;entryX=0.5;entryY=0;entryDx=0;entryDy=0;" edge="1" parent="1" source="GBQWndS0z4S2nc0Ehahh-6" target="GBQWndS0z4S2nc0Ehahh-8">
          <mxGeometry width="50" height="50" relative="1" as="geometry">
            <mxPoint x="256" y="264" as="sourcePoint" />
            <mxPoint x="210" y="400" as="targetPoint" />
          </mxGeometry>
        </mxCell>
        <mxCell id="GBQWndS0z4S2nc0Ehahh-25" value="" style="endArrow=none;html=1;rounded=0;entryX=0;entryY=1;entryDx=0;entryDy=0;exitX=1;exitY=0;exitDx=0;exitDy=0;" edge="1" parent="1" source="GBQWndS0z4S2nc0Ehahh-8" target="GBQWndS0z4S2nc0Ehahh-7">
          <mxGeometry width="50" height="50" relative="1" as="geometry">
            <mxPoint x="390" y="310" as="sourcePoint" />
            <mxPoint x="440" y="260" as="targetPoint" />
          </mxGeometry>
        </mxCell>
        <mxCell id="GBQWndS0z4S2nc0Ehahh-26" value="" style="endArrow=none;html=1;rounded=0;exitX=0;exitY=1;exitDx=0;exitDy=0;entryX=1;entryY=0;entryDx=0;entryDy=0;" edge="1" parent="1" source="GBQWndS0z4S2nc0Ehahh-9" target="GBQWndS0z4S2nc0Ehahh-7">
          <mxGeometry width="50" height="50" relative="1" as="geometry">
            <mxPoint x="266" y="274" as="sourcePoint" />
            <mxPoint x="220" y="410" as="targetPoint" />
          </mxGeometry>
        </mxCell>
      </root>
    </mxGraphModel>
  </diagram>
</mxfile>
